<svg xmlns="http://www.w3.org/2000/svg" id="a" viewBox="8 -3 46 46" width="100%" height="100%">
	<defs>
		<style>
			.b,
			.c {
				fill: #414141;
			}

			.c {
				fill-rule: evenodd;
			}
		</style>
	</defs>
	<g>
		<polyline class="c" points="35.159 16.444 30.408 6.784 34.187 18.247 35.159 16.444" />
		<polyline class="c"
			points="29.926 6.784 28.237 11.973 28.929 13.102 29.926 10.048 33.19 20.094 33.846 18.869 29.926 6.784" />
		<polyline class="c" points="26.295 15.29 15.636 16.821 27.704 16.768 26.295 15.29" />
		<polyline class="c"
			points="15.488 17.276 19.898 20.478 21.193 20.172 18.585 18.282 29.156 18.282 28.193 17.276 15.488 17.276" />
		<polyline class="c" points="22.453 23.357 20.616 33.972 24.291 22.474 22.453 23.357" />
		<polyline class="c"
			points="21.01 34.252 25.42 31.041 25.533 29.719 22.926 31.61 26.19 21.563 24.938 22.168 21.01 34.252" />
		<polyline class="c" points="28.937 29.5 38.458 34.523 28.666 27.479 28.937 29.5" />
		<polyline class="c"
			points="38.852 34.243 37.163 29.054 35.938 28.547 36.936 31.61 28.386 25.397 28.57 26.779 38.852 34.243" />
		<polyline class="c" points="36.787 25.239 44.513 17.731 34.783 24.872 36.787 25.239" />
		<polyline class="c"
			points="44.365 17.276 38.913 17.276 38.047 18.282 41.267 18.282 32.718 24.495 34.092 24.74 44.365 17.276" />
	</g>
</svg>